<?xml version="1.0" encoding="UTF-8" standalone="no"?>
<svg
   viewBox="0 0 147.58576 177.29816"
   version="1.1"
   id="svg3"
   sodipodi:docname="Svelte.svg"
   width="147.58575"
   height="177.29816"
   inkscape:version="1.3.2 (091e20e, 2023-11-25, custom)"
   xmlns:inkscape="http://www.inkscape.org/namespaces/inkscape"
   xmlns:sodipodi="http://sodipodi.sourceforge.net/DTD/sodipodi-0.dtd"
   xmlns="http://www.w3.org/2000/svg"
   xmlns:svg="http://www.w3.org/2000/svg">
  <defs
     id="defs3" />
  <sodipodi:namedview
     id="namedview3"
     pagecolor="#ffffff"
     bordercolor="#000000"
     borderopacity="0.25"
     inkscape:showpageshadow="2"
     inkscape:pageopacity="0.0"
     inkscape:pagecheckerboard="0"
     inkscape:deskcolor="#d1d1d1"
     showgrid="false"
     inkscape:zoom="3.017405"
     inkscape:cx="58.659675"
     inkscape:cy="91.303619"
     inkscape:window-width="1920"
     inkscape:window-height="974"
     inkscape:window-x="-11"
     inkscape:window-y="-11"
     inkscape:window-maximized="1"
     inkscape:current-layer="svg3" />
  <path
     d="m 138.19288,23.499077 c 7.9,11.1 11,24.8 8.6,38.2 -1.1,6.3 -3.6,12.3 -7.1,17.7 5.2,9.8 6.9,21.100003 4.9,32.000003 -2.4,13.1 -10.1,24.6 -21.4,31.7 l -41.299999,26.3 c -23.5,15 -56.1,8 -72.5000004,-15.6 -7.9,-10.9 -11,-24.7 -8.59999997,-38.1 1.09999997,-6.3 3.59999997,-12.3 7.09999997,-17.700003 -5.2,-9.8 -6.89999997,-21.1 -4.9,-32 2.4,-13.1 10.1000004,-24.7 21.4000004,-31.7 l 41.3,-26.4000002 c 23.5,-15 55.999999,-8.00000001 72.499999,15.6000002"
     style="fill:#000000"
     id="path1" />
  <path
     d="m 61.592881,156.19908 c 3,-0.8 5.8,-2 8.4,-3.7 l 41.299999,-26.3 c 6.8,-4.3 11.5,-11.2 12.9,-19.1 1.4,-8.000003 -0.4,-16.300003 -5.2,-23.000003 -7.8,-11.3 -21.899999,-16.5 -35.199999,-13.1 -3,0.8 -5.8,2 -8.4,3.7 l -15.8,10 c -0.8,0.5 -1.6,0.9 -2.5,1.1 -4,1 -8.3,-0.5 -10.6,-3.9 -1.4,-2 -2,-4.5 -1.6,-6.9 0.4,-2.4 1.8,-4.5 3.9,-5.7 l 41.3,-26.3 c 0.8,-0.5 1.6,-0.9 2.5,-1.1 4,-1 8.299999,0.5 10.599999,3.9 1.3,1.8 1.9,4 1.7,6.1 v 1.5 c -0.1,0 1.4,0.5 1.4,0.5 5.8,1.8 11.3,4.5 16.2,8.1 l 2.1,1.6 0.8,-2.4 c 0.4,-1.3 0.7,-2.6 1,-3.9 1.4,-8 -0.4,-16.3 -5.2,-23 -7.8,-11.3 -21.899999,-16.5 -35.199999,-13.1 -3,0.8 -5.8,2 -8.4,3.7 l -41.3,26.3 c -6.8,4.3 -11.5,11.2 -12.9,19.1 -1.4,8 0.4,16.3 5.2,23 7.8,11.300003 21.9,16.500003 35.2,13.100003 3,-0.8 5.8,-2 8.4,-3.7 l 15.8,-10.100003 c 0.8,-0.5 1.6,-0.9 2.5,-1.1 4,-1 8.3,0.5 10.599999,3.9 1.4,2 2,4.5 1.6,6.900003 -0.4,2.4 -1.8,4.5 -3.899999,5.8 l -41.3,26.3 c -0.8,0.5 -1.6,0.9 -2.5,1.1 -4,1 -8.3,-0.5 -10.6,-3.9 -1.3,-1.8 -1.9,-4 -1.7,-6.1 v -1.5 c 0.1,0 -1.4,-0.5 -1.4,-0.5 -5.8,-1.8 -11.3,-4.5 -16.2,-8.1 l -2.1,-1.6 -0.8,2.4 c -0.4,1.3 -0.7,2.6 -1,3.9 -1.4,8 0.4,16.3 5.2,23 7.8,11.3 21.9,16.5 35.2,13.1"
     style="fill:#ffffff"
     id="path2" />
</svg>
